HIERARCHY
ROOT Hips
{
	OFFSET 0.000000 0.000000 0.000000
	CHANNELS 6 Xposition Yposition Zposition Zrotation Yrotation Xrotation 
	JOINT LowerBack
	{
		OFFSET 0.000000 0.000000 0.000000
		CHANNELS 3 Zrotation Yrotation Xrotation
		JOINT Spine
		{
			OFFSET 0.028270 2.035590 -0.193380
			CHANNELS 3 Zrotation Yrotation Xrotation
			JOINT Spine1
			{
				OFFSET 0.056720 2.048850 -0.042750
				CHANNELS 3 Zrotation Yrotation Xrotation
				JOINT Neck
				{
					OFFSET 0.000000 0.000000 0.000000
					CHANNELS 3 Zrotation Yrotation Xrotation
					JOINT Neck1
					{
						OFFSET -0.054170 1.746240 0.172020
						CHANNELS 3 Zrotation Yrotation Xrotation
						JOINT Head
						{
							OFFSET 0.104070 1.761360 -0.123970
							CHANNELS 3 Zrotation Yrotation Xrotation
							End Site
							{
								OFFSET 0.000000 0.000000 0.000000
							}
						}
					}
				}
				JOINT LeftShoulder
				{
					OFFSET 0.000000 0.000000 0.000000
					CHANNELS 3 Zrotation Yrotation Xrotation
					JOINT LeftArm
					{
						OFFSET 3.362410 1.200890 -0.311210
						CHANNELS 3 Zrotation Yrotation Xrotation
						JOINT LeftForeArm
						{
							OFFSET 4.983000 -0.000000 -0.000000
							CHANNELS 3 Zrotation Yrotation Xrotation
							JOINT LeftHand
							{
								OFFSET 3.483560 -0.000000 -0.000000
								CHANNELS 3 Zrotation Yrotation Xrotation
								JOINT LeftFingerBase
								{
									OFFSET 0.000000 0.000000 0.000000
									CHANNELS 3 Zrotation Yrotation Xrotation
									JOINT LeftHandIndex1
									{
										OFFSET 0.715260 -0.000000 -0.000000
										CHANNELS 3 Zrotation Yrotation Xrotation
										End Site
										{
											OFFSET 0.000000 0.000000 0.000000
										}
									}
								}
								JOINT LThumb
								{
									OFFSET 0.000000 0.000000 0.000000
									CHANNELS 3 Zrotation Yrotation Xrotation
									End Site
									{
										OFFSET 0.000000 0.000000 0.000000
									}
								}
							}
						}
					}
				}
				JOINT RightShoulder
				{
					OFFSET 0.000000 0.000000 0.000000
					CHANNELS 3 Zrotation Yrotation Xrotation
					JOINT RightArm
					{
						OFFSET -3.136600 1.374050 -0.404650
						CHANNELS 3 Zrotation Yrotation Xrotation
						JOINT RightForeArm
						{
							OFFSET -5.241900 -0.000000 -0.000000
							CHANNELS 3 Zrotation Yrotation Xrotation
							JOINT RightHand
							{
								OFFSET -3.444170 -0.000000 -0.000000
								CHANNELS 3 Zrotation Yrotation Xrotation
								JOINT RightFingerBase
								{
									OFFSET 0.000000 0.000000 0.000000
									CHANNELS 3 Zrotation Yrotation Xrotation
									JOINT RightHandIndex1
									{
										OFFSET -0.622530 -0.000000 -0.000000
										CHANNELS 3 Zrotation Yrotation Xrotation
										End Site
										{
											OFFSET 0.000000 0.000000 0.000000
										}
									}
								}
								JOINT RThumb
								{
									OFFSET 0.000000 0.000000 0.000000
									CHANNELS 3 Zrotation Yrotation Xrotation
									End Site
									{
										OFFSET 0.000000 0.000000 0.000000
									}
								}
							}
						}
					}
				}
			}
		}
	}
}
}
MOTION
Frames: 17
Frame Time: 0.008333
4.011264 16.800971 1.409473 -178.579639 -80.219583 -170.468367 -0.243655 0.502678 -6.445301 -0.872662 0.302262 -4.749033 -5.788721 0.154089 -2.078750 7.516633 -0.655701 -5.896349 -3.581519 -0.297826 0.479986 0.000000 0.000000 0.000000 -4.874984 4.862088 3.992045 -64.308516 7.440210 -17.714833 -3.122741 -3.410972 -0.033811 19.531203 6.286468 1.064128 0.011311 0.104497 0.000000 0.000000 0.000000 0.000000 0.000000 0.000000 0.000000 11.925956 6.547844 -0.085056 77.810443 31.930236 36.246975 1.306645 43.973977 -0.009257 -4.005769 9.331416 -0.343673 0.070600 -0.335617 -0.000000 0.000000 0.000000 0.000000 0.000000 0.000000 0.000000 
3.789196 16.892457 1.331100 175.782143 -80.217218 -164.884863 -1.805833 0.600453 -6.639766 -1.159411 0.549712 -4.817486 -5.658607 0.395580 -2.188585 7.235198 -0.745161 -5.855351 -3.393373 -0.285975 0.496986 0.000000 0.000000 0.000000 -5.116857 5.092246 4.079962 -63.040853 10.992789 -16.914002 -3.507257 -4.306538 -0.036301 17.927275 9.444762 1.476104 -0.013486 0.111052 0.000000 0.000000 0.000000 0.000000 0.000000 0.000000 0.000000 10.873823 6.780621 -0.193554 77.801629 34.152726 38.465421 1.245299 46.739254 -0.009502 -3.797462 8.952957 -0.313726 0.071213 -0.353243 0.000000 0.000000 0.000000 0.000000 0.000000 0.000000 0.000000 
3.566757 16.978010 1.254088 170.795609 -80.189318 -160.011592 -3.263511 0.681957 -6.756523 -1.423536 0.773950 -4.863839 -5.529772 0.616835 -2.270437 6.949077 -0.805432 -5.827495 -3.198801 -0.272956 0.507660 0.000000 0.000000 0.000000 -5.302105 5.460403 4.136578 -61.609568 14.085664 -15.873604 -3.903046 -4.730876 -0.039494 15.979142 11.806795 1.650161 -0.040720 0.113970 0.000000 0.000000 0.000000 0.000000 0.000000 0.000000 0.000000 9.797570 6.982372 -0.285876 77.531249 36.447573 40.341311 1.199794 49.516994 -0.008911 -3.415781 8.557891 -0.270809 0.068867 -0.368642 -0.000000 0.000000 0.000000 0.000000 0.000000 0.000000 0.000000 
3.344011 17.055827 1.180674 166.688735 -80.083246 -156.072964 -4.572359 0.780444 -6.799618 -1.659071 1.002374 -4.892243 -5.393796 0.845355 -2.332221 6.633827 -0.811463 -5.802609 -2.998630 -0.259049 0.515536 0.000000 0.000000 0.000000 -5.453559 5.936498 4.155752 -60.015125 16.706924 -14.390238 -4.304848 -4.599360 -0.042449 13.728001 13.354046 1.608003 -0.069151 0.112250 0.000000 0.000000 0.000000 0.000000 0.000000 0.000000 0.000000 8.665397 7.189727 -0.354301 76.951817 38.803922 41.837635 1.163839 52.306892 -0.007562 -2.902040 8.190143 -0.221018 0.063532 -0.382309 -0.000000 0.000000 0.000000 0.000000 0.000000 0.000000 0.000000 
3.121031 17.124336 1.113066 163.607076 -79.873861 -153.204593 -5.706450 0.915591 -6.781360 -1.860686 1.250596 -4.904948 -5.239178 1.096327 -2.368628 6.269383 -0.756399 -5.791591 -2.792411 -0.244150 0.518457 0.000000 0.000000 0.000000 -5.596327 6.564589 4.133307 -58.309785 18.895217 -12.613513 -4.688905 -4.114801 -0.044226 11.323146 14.074742 1.402340 -0.096591 0.105309 -0.000000 0.000000 0.000000 0.000000 0.000000 0.000000 0.000000 7.448928 7.419100 -0.399259 76.020071 41.226890 42.925315 1.130387 55.103166 -0.005679 -2.314784 7.878799 -0.170249 0.055639 -0.394672 -0.000000 0.000000 0.000000 0.000000 0.000000 0.000000 0.000000 
2.897580 17.182524 1.053046 161.604832 -79.563894 -151.443288 -6.644335 1.099415 -6.723061 -2.022823 1.527437 -4.907332 -5.058539 1.377450 -2.383169 5.835879 -0.634557 -5.795240 -2.580543 -0.228368 0.517265 0.000000 0.000000 0.000000 -5.764355 7.327985 4.064345 -56.505932 20.658258 -10.365317 -5.049094 -3.270843 -0.044150 8.854094 13.991484 1.094978 -0.121991 0.092768 -0.000000 0.000000 0.000000 0.000000 0.000000 0.000000 0.000000 6.124558 7.673382 -0.420066 74.696668 43.699817 43.557850 1.090890 57.889760 -0.003605 -1.714987 7.636206 -0.122597 0.045588 -0.406295 -0.000000 0.000000 0.000000 0.000000 0.000000 0.000000 0.000000 
2.673477 17.229772 1.001635 160.622623 -79.168052 -150.713838 -7.376962 1.334473 -6.641454 -2.141513 1.834111 -4.901911 -4.847020 1.688925 -2.374666 5.323446 -0.456571 -5.822627 -2.363768 -0.211699 0.510258 0.000000 0.000000 0.000000 -5.979450 8.229366 3.946567 -54.643285 22.017521 -7.600676 -5.370728 -2.146401 -0.041880 6.464315 13.151948 0.757130 -0.144069 0.074749 -0.000000 0.000000 0.000000 0.000000 0.000000 0.000000 0.000000 4.685162 7.936091 -0.420580 72.953165 46.209164 43.699157 1.038550 60.636501 -0.001729 -1.163385 7.460426 -0.081355 0.033921 -0.417724 -0.000000 0.000000 0.000000 0.000000 0.000000 0.000000 0.000000 
2.448151 17.266025 0.959259 160.585053 -78.697154 -150.914467 -7.894843 1.619799 -6.559884 -2.213082 2.169004 -4.893159 -4.604110 2.028081 -2.347237 4.727490 -0.231001 -5.878918 -2.142958 -0.194202 0.496777 0.000000 0.000000 0.000000 -6.261022 9.257859 3.780512 -52.773115 23.021858 -4.396111 -5.635374 -0.814166 -0.037453 4.324806 11.642391 0.454595 -0.161658 0.052108 -0.000000 0.000000 0.000000 0.000000 0.000000 0.000000 0.000000 3.128286 8.191918 -0.409593 70.783388 48.716732 43.311154 0.969402 63.303986 -0.000392 -0.701446 7.336314 -0.047918 0.020947 -0.429507 -0.000000 0.000000 0.000000 0.000000 0.000000 0.000000 0.000000 
2.221307 17.291661 0.925482 161.330283 -78.156466 -151.869165 -8.209068 1.948825 -6.489640 -2.238990 2.527265 -4.881928 -4.333630 2.389356 -2.300950 4.058117 0.016125 -5.974311 -1.919350 -0.175863 0.474287 0.000000 0.000000 0.000000 -6.597216 10.423341 3.573251 -50.959526 23.737757 -0.971673 -5.821298 0.578158 -0.031334 2.622341 9.642690 0.234480 -0.173839 0.026478 -0.000000 0.000000 0.000000 0.000000 0.000000 0.000000 0.000000 1.473427 8.412259 -0.402282 68.201974 51.190539 42.388507 0.883677 65.840814 0.000125 -0.361824 7.246073 -0.023786 0.006999 -0.442130 -0.000000 0.000000 0.000000 0.000000 0.000000 0.000000 0.000000 
1.992591 17.307388 0.899420 162.688778 -77.536237 -153.387017 -8.338593 2.288634 -6.429503 -2.225606 2.875743 -4.881569 -4.064107 2.737138 -2.284648 3.367314 0.264730 -6.114730 -1.683599 -0.156046 0.442791 0.000000 0.000000 0.000000 -7.052061 11.626944 3.370157 -49.129065 25.857344 2.722955 -5.931372 -1.508924 -0.028897 1.482510 8.859671 0.128292 -0.181662 -0.003339 -0.000000 0.000000 0.000000 0.000000 0.000000 0.000000 0.000000 -0.225307 8.646814 -0.395758 65.278853 53.573798 40.955523 0.793838 68.201122 -0.000123 -0.146993 7.170414 -0.008349 -0.006791 -0.455886 -0.000000 0.000000 0.000000 0.000000 0.000000 0.000000 0.000000 
1.761869 17.314229 0.879864 164.454625 -76.858819 -155.267307 -8.311996 2.659874 -6.396752 -2.180102 3.241596 -4.885722 -3.791233 3.099686 -2.272551 2.646720 0.493623 -6.277575 -1.446173 -0.135779 0.406932 0.000000 0.000000 0.000000 -7.500722 12.925561 3.134225 -47.216447 27.766754 6.098055 -5.947617 -3.501329 -0.025929 0.916457 7.955863 0.076216 -0.184175 -0.032885 -0.000000 0.000000 0.000000 0.000000 0.000000 0.000000 0.000000 -1.963464 8.802800 -0.434856 62.061455 55.783498 39.021392 0.696173 70.332227 -0.001382 -0.050058 7.096907 -0.001023 -0.021946 -0.470993 -0.000000 0.000000 0.000000 0.000000 0.000000 0.000000 0.000000 
1.528970 17.313398 0.865449 166.440386 -76.144664 -157.319107 -8.164140 3.054211 -6.397262 -2.110015 3.621299 -4.896069 -3.519778 3.473489 -2.271422 1.916107 0.683439 -6.447827 -1.210444 -0.115564 0.370496 0.000000 0.000000 0.000000 -7.874830 14.279450 2.881249 -45.315749 29.367431 8.897169 -5.890800 -5.101121 -0.022248 0.852943 6.984638 0.063251 -0.182839 -0.059367 -0.000000 0.000000 0.000000 0.000000 0.000000 0.000000 0.000000 -3.711789 8.865806 -0.543276 58.650731 57.737177 36.656071 0.600896 72.202168 -0.003545 -0.048780 7.020690 0.000088 -0.038415 -0.487210 0.000000 0.000000 0.000000 0.000000 0.000000 0.000000 0.000000 
1.293874 17.306139 0.854964 168.492518 -75.425244 -159.386135 -7.929401 3.460558 -6.437388 -2.023010 4.008148 -4.914304 -3.254505 3.852064 -2.286105 1.196387 0.818823 -6.608584 -0.979140 -0.095883 0.337814 0.000000 0.000000 0.000000 -8.122408 15.628720 2.632089 -43.515577 30.680524 10.990974 -5.789979 -6.260698 -0.018111 1.162025 6.047353 0.071393 -0.179751 -0.081073 -0.000000 0.000000 0.000000 0.000000 0.000000 0.000000 0.000000 -5.439887 8.837827 -0.733786 55.172242 59.361998 33.969367 0.518629 73.800522 -0.006374 -0.112258 6.944456 -0.003018 -0.055782 -0.503840 0.000000 0.000000 0.000000 0.000000 0.000000 0.000000 0.000000 
1.057049 17.293670 0.847181 170.478701 -74.738593 -161.339473 -7.645988 3.865893 -6.523202 -1.928111 4.393353 -4.940506 -3.000103 4.227168 -2.313891 0.510069 0.887312 -6.745721 -0.755477 -0.077193 0.312291 0.000000 0.000000 0.000000 -8.208155 16.909078 2.405136 -41.880786 31.752627 12.335814 -5.672055 -7.001600 -0.013902 1.701598 5.210225 0.086638 -0.176849 -0.097344 -0.000000 0.000000 0.000000 0.000000 0.000000 0.000000 0.000000 -7.108745 8.728276 -1.001833 51.745869 60.621674 31.099257 0.456706 75.133793 -0.009596 -0.212985 6.876527 -0.008543 -0.073323 -0.519961 0.000000 0.000000 0.000000 0.000000 0.000000 0.000000 0.000000 
0.818797 17.277054 0.841022 172.327841 -74.125467 -163.111951 -7.344428 4.256896 -6.657157 -1.832902 4.766501 -4.972921 -2.760615 4.589173 -2.346097 -0.123888 0.884521 -6.849740 -0.542047 -0.059822 0.296003 0.000000 0.000000 0.000000 -8.118211 18.065165 2.212733 -40.446931 32.637636 12.956413 -5.556786 -7.386179 -0.010010 2.343420 4.507881 0.101182 -0.175483 -0.108330 -0.000000 0.000000 0.000000 0.000000 0.000000 0.000000 0.000000 -8.683686 8.552273 -1.328467 48.484351 61.512753 28.190074 0.417438 76.221126 -0.012906 -0.322477 6.827028 -0.014585 -0.090333 -0.534647 0.000000 0.000000 0.000000 0.000000 0.000000 0.000000 0.000000 
0.579815 17.257229 0.835475 173.994095 -73.622640 -164.671226 -7.053027 4.619573 -6.833092 -1.744519 5.115557 -5.008014 -2.540760 4.926948 -2.371716 -0.687284 0.810075 -6.917819 -0.341806 -0.044007 0.289105 0.000000 0.000000 0.000000 -7.855398 19.057058 2.060023 -39.225236 33.385341 12.919959 -5.456450 -7.492954 -0.006761 2.983101 3.953814 0.111923 -0.176337 -0.114632 -0.000000 0.000000 0.000000 0.000000 0.000000 0.000000 0.000000 -10.126130 8.322799 -1.683945 45.473773 62.071540 25.376202 0.398121 77.083531 -0.016053 -0.419941 6.804381 -0.019939 -0.106206 -0.547279 0.000000 0.000000 0.000000 0.000000 0.000000 0.000000 0.000000 
0.340728 17.234991 0.829631 175.460280 -73.259997 -166.017562 -6.793634 4.940644 -7.037058 -1.668339 5.428007 -5.041970 -2.345718 5.228783 -2.382612 -1.164914 0.668819 -6.951521 -0.157754 -0.029925 0.290628 0.000000 0.000000 0.000000 -7.439587 19.860620 1.945677 -38.207153 34.042772 12.336674 -5.376845 -7.409164 -0.004407 3.540064 3.556699 0.119056 -0.179474 -0.117075 -0.000000 0.000000 0.000000 0.000000 0.000000 0.000000 0.000000 -11.400295 8.050610 -2.036147 42.776295 62.356158 22.767573 0.392745 77.740789 -0.018850 -0.491758 6.812541 -0.023899 -0.120514 -0.557606 0.000000 0.000000 0.000000 0.000000 0.000000 0.000000 0.000000 
